HIERARCHY
ROOT hip
{
  OFFSET 0 0 0
  CHANNELS 6 Xposition Yposition Zposition Zrotation Yrotation Xrotation
  JOINT abdomen
  {
    OFFSET 0 20.6881 -0.73152
    CHANNELS 3 Zrotation Xrotation Yrotation
    JOINT chest
    {
      OFFSET 0 11.7043 -0.48768
      CHANNELS 3 Zrotation Xrotation Yrotation
      JOINT neck
      {
        OFFSET 0 22.1894 -2.19456
        CHANNELS 3 Zrotation Xrotation Yrotation
        JOINT head
        {
          OFFSET -0.24384 7.07133 1.2192
          CHANNELS 3 Zrotation Xrotation Yrotation
          JOINT leftEye
          {
            OFFSET 4.14528 8.04674 8.04672
            CHANNELS 3 Zrotation Xrotation Yrotation
            End Site
            {
              OFFSET 1 0 0
            }
          }
          JOINT rightEye
          {
            OFFSET -3.6576 8.04674 8.04672
            CHANNELS 3 Zrotation Xrotation Yrotation
            End Site
            {
              OFFSET 1 0 0
            }
          }
        }
      }
      JOINT rCollar
      {
        OFFSET -2.68224 19.2634 -4.8768
        CHANNELS 3 Zrotation Xrotation Yrotation
        JOINT rShldr
        {
          OFFSET -8.77824 -1.95073 1.46304
          CHANNELS 3 Zrotation Xrotation Yrotation
          JOINT rForeArm
          {
            OFFSET -28.1742 -1.7115 0.48768
            CHANNELS 3 Zrotation Xrotation Yrotation
            JOINT rHand
            {
              OFFSET -22.5879 0.773209 7.07136
              CHANNELS 3 Zrotation Xrotation Yrotation
              JOINT rThumb1
              {
                OFFSET -1.2192 -0.487915 3.41376
                CHANNELS 3 Zrotation Xrotation Yrotation
                JOINT rThumb2
                {
                  OFFSET -3.37035 -0.52449 3.41376
                  CHANNELS 3 Zrotation Xrotation Yrotation
                  End Site
                  {
                    OFFSET -1.78271 -1.18214 1.43049
                  }
                }
              }
              JOINT rIndex1
              {
                OFFSET -7.75947 0.938293 5.60832
                CHANNELS 3 Zrotation Xrotation Yrotation
                JOINT rIndex2
                {
                  OFFSET -2.54057 -0.884171 1.56538
                  CHANNELS 3 Zrotation Xrotation Yrotation
                  End Site
                  {
                    OFFSET -1.62519 -0.234802 1.16502
                  }
                }
              }
              JOINT rMid1
              {
                OFFSET -8.24714 1.18213 3.41376
                CHANNELS 3 Zrotation Xrotation Yrotation
                JOINT rMid2
                {
                  OFFSET -3.10165 -0.590103 1.0647
                  CHANNELS 3 Zrotation Xrotation Yrotation
                  End Site
                  {
                    OFFSET -2.48547 -0.328903 0.83742
                  }
                }
              }
              JOINT rRing1
              {
                OFFSET -8.82822 0.546677 1.51678
                CHANNELS 3 Zrotation Xrotation Yrotation
                JOINT rRing2
                {
                  OFFSET -2.60934 -0.819778 -0.0198488
                  CHANNELS 3 Zrotation Xrotation Yrotation
                  End Site
                  {
                    OFFSET -2.33842 -0.294052 0.168128
                  }
                }
              }
              JOINT rPinky1
              {
                OFFSET -8.27202 -0.0477905 -0.4584
                CHANNELS 3 Zrotation Xrotation Yrotation
                JOINT rPinky2
                {
                  OFFSET -1.82734 -0.647385 -0.700984
                  CHANNELS 3 Zrotation Xrotation Yrotation
                  End Site
                  {
                    OFFSET -1.69225 -0.51767 -0.607171
                  }
                }
              }
            }
          }
        }
      }
      JOINT lCollar
      {
        OFFSET 2.68224 19.2634 -4.8768
        CHANNELS 3 Zrotation Xrotation Yrotation
        JOINT lShldr
        {
          OFFSET 8.77824 -1.95073 1.46304
          CHANNELS 3 Zrotation Xrotation Yrotation
          JOINT lForeArm
          {
            OFFSET 28.1742 -1.7115 0.48768
            CHANNELS 3 Zrotation Xrotation Yrotation
            JOINT lHand
            {
              OFFSET 22.5879 0.773209 7.07136
              CHANNELS 3 Zrotation Xrotation Yrotation
              JOINT lThumb1
              {
                OFFSET 1.2192 -0.487915 3.41376
                CHANNELS 3 Zrotation Xrotation Yrotation
                JOINT lThumb2
                {
                  OFFSET 3.37035 -0.52449 3.41376
                  CHANNELS 3 Zrotation Xrotation Yrotation
                  End Site
                  {
                    OFFSET 1.78271 -1.18214 1.43049
                  }
                }
              }
              JOINT lIndex1
              {
                OFFSET 7.75947 0.938293 5.60832
                CHANNELS 3 Zrotation Xrotation Yrotation
                JOINT lIndex2
                {
                  OFFSET 2.54057 -0.884171 1.56538
                  CHANNELS 3 Zrotation Xrotation Yrotation
                  End Site
                  {
                    OFFSET 1.62519 -0.234802 1.16502
                  }
                }
              }
              JOINT lMid1
              {
                OFFSET 8.24714 1.18213 3.41376
                CHANNELS 3 Zrotation Xrotation Yrotation
                JOINT lMid2
                {
                  OFFSET 3.10165 -0.590103 1.0647
                  CHANNELS 3 Zrotation Xrotation Yrotation
                  End Site
                  {
                    OFFSET 2.48547 -0.328903 0.83742
                  }
                }
              }
              JOINT lRing1
              {
                OFFSET 8.82822 0.546677 1.51678
                CHANNELS 3 Zrotation Xrotation Yrotation
                JOINT lRing2
                {
                  OFFSET 2.60934 -0.819778 -0.0198488
                  CHANNELS 3 Zrotation Xrotation Yrotation
                  End Site
                  {
                    OFFSET 2.33842 -0.294052 0.168128
                  }
                }
              }
              JOINT lPinky1
              {
                OFFSET 8.27202 -0.0477905 -0.4584
                CHANNELS 3 Zrotation Xrotation Yrotation
                JOINT lPinky2
                {
                  OFFSET 1.82734 -0.647385 -0.700984
                  CHANNELS 3 Zrotation Xrotation Yrotation
                  End Site
                  {
                    OFFSET 1.69225 -0.51767 -0.607171
                  }
                }
              }
            }
          }
        }
      }
    }
  }
  JOINT rButtock
  {
    OFFSET -8.77824 4.35084 1.2192
    CHANNELS 3 Zrotation Xrotation Yrotation
    JOINT rThigh
    {
      OFFSET 0 -1.70687 -2.19456
      CHANNELS 3 Zrotation Xrotation Yrotation
      JOINT rShin
      {
        OFFSET 0 -36.8199 0.73152
        CHANNELS 3 Zrotation Xrotation Yrotation
        JOINT rFoot
        {
          OFFSET 0.73152 -45.1104 -5.12064
          CHANNELS 3 Zrotation Xrotation Yrotation
          End Site
          {
            OFFSET -1.1221 -3.69964 12.103
          }
        }
      }
    }
  }
  JOINT lButtock
  {
    OFFSET 8.77824 4.35084 1.2192
    CHANNELS 3 Zrotation Xrotation Yrotation
    JOINT lThigh
    {
      OFFSET 0 -1.70687 -2.19456
      CHANNELS 3 Zrotation Xrotation Yrotation
      JOINT lShin
      {
        OFFSET 0 -36.8199 0.73152
        CHANNELS 3 Zrotation Xrotation Yrotation
        JOINT lFoot
        {
          OFFSET -0.73152 -45.1104 -5.12064
          CHANNELS 3 Zrotation Xrotation Yrotation
          End Site
          {
            OFFSET 1.1221 -3.69964 12.103
          }
        }
      }
    }
  }
}
MOTION
Frames:	6
Frame Time:	0.03333
13.6712 51.4817 -18.2811 -100.3568 79.583916 -93.530951 3.567445 7.426633 94.644181 -6.133368 -6.218376 -91.323384 7.16964 29.776105 123.897724 -36.923676 20.743352 -92.015535 -55.775206 16.437874 -30.533107 8.725225 -1.452361 -18.866196 -155.661464 20.365081 151.053214 78.685083 -24.688743 101.445722 21.640223 -17.162324 111.540332 -16.483638 -11.338394 -2.1541 -165.927079 -5.292506 107.525991 -163.805285 2.52041 115.541463 5.127671 -11.77075 3.720441 -115.3465 59.77971 83.213667 -164.431767 -32.265074 153.802106 1.718832 69.082873 -9.074306 -4.810114 -45.083661 -5.809838 13.695005 30.162439 9.747179 0.588918 -23.76333 -27.42243 6.349012 -7.562963 36.240639 153.681313 -40.295125 -178.944224 106.764918 -19.694183 142.205143 -9.549546 51.329271 57.566857 -144.511073 -42.208431 -139.985395 -64.401277 -60.119377 -15.202247 108.770979 -78.037124 -174.060144 -12.219949 -28.94933 14.162209 -16.599404 -8.048209 -11.844482 86.523731 36.579271 -79.593192 131.609044 -56.165374 -140.844307 140.291356 5.718553 -174.372975 -13.638819 25.435217 -4.090443 153.587232 54.212626 168.571762 108.024849 -52.442737 100.299555 4.136946 -6.861224 31.192464 -4.706184 14.510515 9.472489 43.031745 32.857901 67.935639 -88.368562 -6.518973 -160.569752 -134.675057 58.615183 -14.842585 -162.419392 -4.810582 -180.0 64.379417 -51.439304 -141.078719 95.326027 9.611563 -30.404242
13.7228 51.693999999999996 -18.7583 -102.051421 79.798725 -95.199512 4.10628 7.603344 96.432886 -6.29007 -5.234714 -93.0364 -14.175807 29.727093 -98.193725 39.389563 27.401264 116.163343 -52.967468 17.630765 -34.57958 6.799864 -1.255481 -20.89859 6.241059 -71.939533 -4.533384 -10.430633 16.143412 -52.367651 30.894204 -72.96099 -110.723322 -152.334896 27.452836 132.676989 -0.041747 4.742063 -17.83435 9.161046 -9.369042 29.504092 69.085635 -65.009257 27.804009 -77.277851 43.399754 44.523691 -3.676611 14.517626 -3.94626 3.24074 0.951493 21.838341 -86.968513 -81.26105 -96.786454 -64.106942 83.655811 88.651975 90.561689 71.16323 -31.96503 85.257413 71.934323 -86.964132 147.317328 -57.840442 172.190453 100.112383 -27.435789 154.254439 178.610122 -31.901219 162.552918 7.763989 55.145171 -10.359177 85.074873 53.135258 -48.175097 164.098412 -6.750493 -66.805606 30.701875 40.369873 -19.161905 2.780245 -11.738422 7.636723 169.561276 -23.439145 -119.854696 -15.763482 -22.035738 -48.39144 -1.056897 12.404434 -10.688085 -11.507443 25.860297 9.990254 92.935151 -58.83458 84.517373 141.952483 15.047384 142.960606 36.464214 26.472514 62.236828 -39.935895 27.345871 -118.753158 -49.476473 19.383175 -29.420667 156.21721 16.679652 -48.207616 3.505629 15.462894 -5.288887 91.995354 -49.8169 91.52468 -31.351803 83.418458 -179.914882 0.282738 9.439084 -154.171179
13.8484 51.7358 -18.6624 -95.968612 79.220771 -89.023852 8.154187 8.593817 -0.88842 2.319991 -6.296256 4.192554 5.255094 32.809188 138.926645 -36.310887 29.120132 -102.060555 -43.205636 18.998695 -45.814813 0.355309 -0.055367 -17.714121 -13.749698 23.704388 12.695303 73.295638 -9.034791 -13.909832 -110.049383 -40.041989 79.165059 -173.18409 -32.35863 151.497753 5.623159 -11.078487 -15.638154 -28.361187 12.273196 42.012295 -56.81596 29.367456 46.234759 -24.033449 73.2359 21.416007 -171.126468 -66.995591 153.207867 -8.8091 66.586891 19.975043 -153.357466 -1.291771 172.275501 -153.731384 3.746378 -171.676611 176.725467 75.128096 -109.619305 103.44042 62.302491 -87.028915 4.353133 -44.962755 20.571623 71.601785 30.288274 -122.915677 106.089798 -80.475493 91.94746 0.619036 37.150436 -7.925338 -3.111725 -3.260676 13.709763 -17.683304 -6.596811 -24.058395 21.384237 29.063787 -12.559297 90.145009 51.672063 -54.543082 84.820093 36.114251 -80.733001 134.437708 -71.476197 -144.890214 145.138552 -2.67884 -174.690864 -3.627223 45.231867 -8.88834 -10.391345 16.753438 -10.577512 157.496952 -23.831504 138.301644 -85.057427 31.864973 -69.164257 62.50673 65.252829 35.24908 -30.127871 38.100454 -39.238781 65.093721 18.524645 23.341374 3.870801 13.83984 -5.77205 92.577281 -48.307198 0.0 -85.5618 -8.328627 -94.774158 -86.04219 13.063369 164.669911
13.9989 51.021499999999996 -18.662200000000002 -96.478817 79.168925 -89.426568 7.086561 7.689053 0.0 3.417358 -5.712169 4.046604 6.851062 21.535716 71.164051 -32.521853 -12.257838 -48.806748 -49.519532 19.013452 -39.911227 -1.903329 0.244216 -14.622039 -9.957418 16.516815 9.991878 77.318776 10.896912 -21.025521 159.200846 11.915757 36.913181 -136.177822 43.607207 115.844703 100.542374 -64.069247 49.055544 -127.650365 4.615264 114.488843 -148.266179 -13.528067 105.459194 -159.51582 -34.506978 90.208482 -3.790859 14.209533 -1.559585 15.150564 -21.595655 19.207535 -77.593368 68.10098 91.902192 -7.307949 30.600909 -7.121048 -130.172136 20.049981 -134.739992 31.527322 19.079549 -22.422225 147.632331 45.771247 -154.428162 61.89719 -34.321625 42.541112 -32.170833 63.380064 77.832237 -154.893431 -26.674402 -148.414477 17.121206 25.232279 3.90964 -25.499094 -23.912502 -30.92583 170.894927 -59.835533 -128.381255 -41.931099 -17.154694 7.797082 173.595381 -26.419459 -118.889998 7.789048 -9.90946 -41.812817 141.449922 6.221149 -177.205072 146.883104 -46.184291 174.253221 149.887573 42.50129 158.056419 151.170592 15.060413 124.774748 -87.662979 32.056311 -68.07741 71.947479 66.438299 -73.365937 -44.428837 -19.046888 -161.177636 -169.022265 -1.169941 129.160134 -56.487306 35.98366 -32.795567 145.525152 -7.213957 -79.636021 -72.237809 -56.321653 -170.509358 -145.847148 12.040215 77.619967
14.1602 51.0842 -18.7868 -93.620331 78.841682 -86.640344 4.625981 4.363414 99.513353 -3.532027 -5.901034 -95.620843 7.444507 23.806216 85.387056 -36.810846 -3.604469 -60.923487 -59.138444 18.450084 -31.948269 -1.222634 0.131023 -12.232975 -165.318772 -30.176885 160.629666 -75.462265 29.393604 25.184154 122.799513 -23.549557 -62.632841 -45.993966 42.290494 25.826764 -9.046852 8.631267 -9.709157 -160.740155 -48.989513 84.912456 17.267254 -19.937368 10.050522 -174.681157 20.105826 126.915843 -87.408124 64.470633 77.680215 -15.612644 -1.17024 3.357183 -1.978742 -14.050865 0.728497 -81.340543 59.040073 92.890989 -110.048253 -16.099511 -119.308938 40.610261 16.818874 -6.931665 154.868225 8.433414 -166.097859 2.944647 -1.774411 49.802269 2.607296 -40.907918 56.003687 -132.265294 -51.647905 -127.324827 107.162434 45.690532 -67.841342 -43.602999 -60.173029 -45.708983 11.890507 20.697048 -2.324089 167.284059 5.548918 -104.10476 85.321696 35.338986 -80.324833 121.736785 -31.342991 -149.142194 139.154542 -0.742074 177.106467 134.238241 -51.318272 163.656097 149.321578 12.165109 148.710994 142.225014 10.557986 124.496628 -87.36974 31.520007 -68.067246 69.148094 64.957815 -171.7562 45.877516 -32.014745 104.506536 172.133585 27.646278 -85.884136 47.30099 14.136249 14.996095 10.831004 -74.476501 -168.769171 66.650211 -42.959266 -110.122512 59.96377 -3.10348 -24.88458
14.3172 51.2166 -19.006999999999998 -90.921418 78.452286 -84.030386 9.151111 5.982406 -57.097533 4.857075 -0.313622 61.021192 -8.001651 35.387155 -144.149779 18.092594 48.314922 164.884068 -66.651828 16.411412 -24.739755 1.747057 -0.214834 -14.019748 -90.946665 62.504682 90.038608 -96.715262 -3.033453 131.825192 84.641789 -37.560006 -102.873387 -70.322524 53.351181 49.995847 -78.190731 49.148554 38.73742 -143.234014 -10.846909 64.851949 -79.5875 30.126694 64.594576 -37.608081 69.694502 41.504682 -91.10103 64.005025 81.64291 178.015051 -3.379053 139.830597 -71.344861 -78.662955 -85.533445 -135.539891 -23.902706 173.509555 -4.177512 -21.970813 -22.763217 -68.677223 65.03762 114.511267 148.263921 -59.40743 173.577893 146.714445 65.313075 145.865304 9.54697 -24.462863 -11.396911 -0.20533 30.735675 -8.395885 93.755928 47.589932 -57.459761 -159.562078 -23.417603 -80.934957 43.405057 44.440584 -31.342703 4.208457 -8.535995 6.374036 158.516692 -9.222104 -116.291107 -85.110908 -30.835768 -63.830736 -7.218683 13.739532 -0.767853 4.370961 17.678115 -7.077577 4.732707 -0.426962 -7.590099 147.231613 2.682535 157.03031 26.844306 11.004343 54.635362 -23.313738 21.900712 -105.611657 -34.216171 27.606746 119.703533 -44.550948 -55.01636 -122.35604 2.047152 12.156963 -9.63333 94.973488 -45.766287 -84.175327 -16.477689 -77.259734 -136.353598 -75.477979 47.541464 1.208344
